<mxfile host="app.diagrams.net" modified="2020-11-03T18:05:16.272Z" agent="5.0 (Windows NT 10.0; Win64; x64) AppleWebKit/537.36 (KHTML, like Gecko) Chrome/86.0.4240.183 Safari/537.36" etag="U90sW2rK6UcGH6JY-d02" version="13.8.9" type="github">
  <diagram id="C5RBs43oDa-KdzZeNtuy" name="Page-1">
    <mxGraphModel dx="1088" dy="784" grid="1" gridSize="10" guides="1" tooltips="1" connect="1" arrows="1" fold="1" page="1" pageScale="1" pageWidth="827" pageHeight="1169" math="0" shadow="0">
      <root>
        <mxCell id="WIyWlLk6GJQsqaUBKTNV-0" />
        <mxCell id="WIyWlLk6GJQsqaUBKTNV-1" parent="WIyWlLk6GJQsqaUBKTNV-0" />
        <mxCell id="JTZMOTASO3qHlPFauNc1-25" value="" style="strokeWidth=2;html=1;shape=mxgraph.flowchart.annotation_1;align=left;pointerEvents=1;rotation=0;" vertex="1" parent="WIyWlLk6GJQsqaUBKTNV-1">
          <mxGeometry x="310" y="30" width="144" height="464" as="geometry" />
        </mxCell>
        <mxCell id="JTZMOTASO3qHlPFauNc1-19" value="" style="strokeWidth=2;html=1;shape=mxgraph.flowchart.annotation_1;align=left;pointerEvents=1;" vertex="1" parent="WIyWlLk6GJQsqaUBKTNV-1">
          <mxGeometry x="530" y="56" width="50" height="404" as="geometry" />
        </mxCell>
        <mxCell id="JTZMOTASO3qHlPFauNc1-8" style="edgeStyle=orthogonalEdgeStyle;rounded=0;orthogonalLoop=1;jettySize=auto;html=1;exitX=1;exitY=0.5;exitDx=0;exitDy=0;entryX=0.5;entryY=0;entryDx=0;entryDy=0;" edge="1" parent="WIyWlLk6GJQsqaUBKTNV-1" source="JTZMOTASO3qHlPFauNc1-0" target="JTZMOTASO3qHlPFauNc1-5">
          <mxGeometry relative="1" as="geometry" />
        </mxCell>
        <mxCell id="JTZMOTASO3qHlPFauNc1-10" value="NO" style="edgeLabel;html=1;align=center;verticalAlign=middle;resizable=0;points=[];" vertex="1" connectable="0" parent="JTZMOTASO3qHlPFauNc1-8">
          <mxGeometry x="-0.2771" y="-3" relative="1" as="geometry">
            <mxPoint as="offset" />
          </mxGeometry>
        </mxCell>
        <mxCell id="JTZMOTASO3qHlPFauNc1-14" value="SI" style="edgeStyle=orthogonalEdgeStyle;rounded=0;orthogonalLoop=1;jettySize=auto;html=1;exitX=0.5;exitY=1;exitDx=0;exitDy=0;entryX=0.5;entryY=0;entryDx=0;entryDy=0;" edge="1" parent="WIyWlLk6GJQsqaUBKTNV-1" source="JTZMOTASO3qHlPFauNc1-0" target="JTZMOTASO3qHlPFauNc1-6">
          <mxGeometry relative="1" as="geometry" />
        </mxCell>
        <mxCell id="JTZMOTASO3qHlPFauNc1-0" value="&lt;font style=&quot;font-size: 24px&quot;&gt;Q2&lt;/font&gt;" style="rhombus;whiteSpace=wrap;html=1;" vertex="1" parent="WIyWlLk6GJQsqaUBKTNV-1">
          <mxGeometry x="374" y="40" width="80" height="80" as="geometry" />
        </mxCell>
        <mxCell id="JTZMOTASO3qHlPFauNc1-12" style="edgeStyle=orthogonalEdgeStyle;rounded=0;orthogonalLoop=1;jettySize=auto;html=1;exitX=1;exitY=0.5;exitDx=0;exitDy=0;entryX=1;entryY=0.5;entryDx=0;entryDy=0;" edge="1" parent="WIyWlLk6GJQsqaUBKTNV-1" source="JTZMOTASO3qHlPFauNc1-1" target="JTZMOTASO3qHlPFauNc1-11">
          <mxGeometry relative="1" as="geometry" />
        </mxCell>
        <mxCell id="JTZMOTASO3qHlPFauNc1-16" value="NO" style="edgeLabel;html=1;align=center;verticalAlign=middle;resizable=0;points=[];" vertex="1" connectable="0" parent="JTZMOTASO3qHlPFauNc1-12">
          <mxGeometry x="-0.5034" y="-2" relative="1" as="geometry">
            <mxPoint as="offset" />
          </mxGeometry>
        </mxCell>
        <mxCell id="JTZMOTASO3qHlPFauNc1-13" style="edgeStyle=orthogonalEdgeStyle;rounded=0;orthogonalLoop=1;jettySize=auto;html=1;exitX=0;exitY=0.5;exitDx=0;exitDy=0;entryX=1;entryY=0.5;entryDx=0;entryDy=0;" edge="1" parent="WIyWlLk6GJQsqaUBKTNV-1" source="JTZMOTASO3qHlPFauNc1-1" target="JTZMOTASO3qHlPFauNc1-6">
          <mxGeometry relative="1" as="geometry" />
        </mxCell>
        <mxCell id="JTZMOTASO3qHlPFauNc1-15" value="SI" style="edgeLabel;html=1;align=center;verticalAlign=middle;resizable=0;points=[];" vertex="1" connectable="0" parent="JTZMOTASO3qHlPFauNc1-13">
          <mxGeometry x="-0.2326" y="-1" relative="1" as="geometry">
            <mxPoint as="offset" />
          </mxGeometry>
        </mxCell>
        <mxCell id="JTZMOTASO3qHlPFauNc1-1" value="&lt;font style=&quot;font-size: 24px&quot;&gt;Q3&lt;/font&gt;" style="rhombus;whiteSpace=wrap;html=1;" vertex="1" parent="WIyWlLk6GJQsqaUBKTNV-1">
          <mxGeometry x="560" y="246" width="80" height="70" as="geometry" />
        </mxCell>
        <mxCell id="JTZMOTASO3qHlPFauNc1-9" style="edgeStyle=orthogonalEdgeStyle;rounded=0;orthogonalLoop=1;jettySize=auto;html=1;exitX=0.5;exitY=1;exitDx=0;exitDy=0;entryX=0.5;entryY=0;entryDx=0;entryDy=0;" edge="1" parent="WIyWlLk6GJQsqaUBKTNV-1" source="JTZMOTASO3qHlPFauNc1-5" target="JTZMOTASO3qHlPFauNc1-1">
          <mxGeometry relative="1" as="geometry" />
        </mxCell>
        <mxCell id="JTZMOTASO3qHlPFauNc1-5" value="PREGUNTA Q4 y JUSTIFICACIÓN" style="rounded=0;whiteSpace=wrap;html=1;" vertex="1" parent="WIyWlLk6GJQsqaUBKTNV-1">
          <mxGeometry x="540" y="130" width="120" height="60" as="geometry" />
        </mxCell>
        <mxCell id="JTZMOTASO3qHlPFauNc1-17" style="edgeStyle=orthogonalEdgeStyle;rounded=0;orthogonalLoop=1;jettySize=auto;html=1;exitX=0.5;exitY=1;exitDx=0;exitDy=0;entryX=0.5;entryY=0;entryDx=0;entryDy=0;" edge="1" parent="WIyWlLk6GJQsqaUBKTNV-1" source="JTZMOTASO3qHlPFauNc1-6" target="JTZMOTASO3qHlPFauNc1-11">
          <mxGeometry relative="1" as="geometry" />
        </mxCell>
        <mxCell id="JTZMOTASO3qHlPFauNc1-6" value="PREGUNTAS Q5 ... Q17" style="rounded=0;whiteSpace=wrap;html=1;" vertex="1" parent="WIyWlLk6GJQsqaUBKTNV-1">
          <mxGeometry x="354" y="251" width="120" height="60" as="geometry" />
        </mxCell>
        <mxCell id="JTZMOTASO3qHlPFauNc1-11" value="TERMINA ENCUESTA" style="ellipse;whiteSpace=wrap;html=1;aspect=fixed;" vertex="1" parent="WIyWlLk6GJQsqaUBKTNV-1">
          <mxGeometry x="374" y="390" width="80" height="80" as="geometry" />
        </mxCell>
        <mxCell id="JTZMOTASO3qHlPFauNc1-21" value="" style="strokeWidth=2;html=1;shape=mxgraph.flowchart.annotation_1;align=left;pointerEvents=1;rotation=-180;" vertex="1" parent="WIyWlLk6GJQsqaUBKTNV-1">
          <mxGeometry x="580" y="56" width="110" height="404" as="geometry" />
        </mxCell>
        <mxCell id="JTZMOTASO3qHlPFauNc1-22" value="NO CONOCEN" style="text;html=1;resizable=0;autosize=1;align=center;verticalAlign=middle;points=[];fillColor=none;strokeColor=none;rounded=0;" vertex="1" parent="WIyWlLk6GJQsqaUBKTNV-1">
          <mxGeometry x="630" y="30" width="100" height="20" as="geometry" />
        </mxCell>
        <mxCell id="JTZMOTASO3qHlPFauNc1-24" value="" style="strokeWidth=2;html=1;shape=mxgraph.flowchart.annotation_1;align=left;pointerEvents=1;rotation=-180;" vertex="1" parent="WIyWlLk6GJQsqaUBKTNV-1">
          <mxGeometry x="354" y="30" width="144" height="464" as="geometry" />
        </mxCell>
        <mxCell id="JTZMOTASO3qHlPFauNc1-26" value="CONOCEN / ENTUCIASTAS" style="text;html=1;resizable=0;autosize=1;align=center;verticalAlign=middle;points=[];fillColor=none;strokeColor=none;rounded=0;" vertex="1" parent="WIyWlLk6GJQsqaUBKTNV-1">
          <mxGeometry x="170" y="5" width="170" height="20" as="geometry" />
        </mxCell>
        <mxCell id="JTZMOTASO3qHlPFauNc1-27" value="PREGUNTA Q2:&amp;nbsp;&lt;b&gt;¿Conoce usted el achiote?&lt;/b&gt;" style="text;html=1;resizable=0;autosize=1;align=center;verticalAlign=middle;points=[];fillColor=none;strokeColor=none;rounded=0;" vertex="1" parent="WIyWlLk6GJQsqaUBKTNV-1">
          <mxGeometry x="30" y="360" width="260" height="20" as="geometry" />
        </mxCell>
        <mxCell id="JTZMOTASO3qHlPFauNc1-28" value="PREGUNTA Q3: &lt;b&gt;¿Estaría dispuesto a conocer&lt;br&gt;&amp;nbsp;más sobre los usos ancestrales del achiote?&lt;/b&gt;" style="text;html=1;resizable=0;autosize=1;align=center;verticalAlign=middle;points=[];fillColor=none;strokeColor=none;rounded=0;" vertex="1" parent="WIyWlLk6GJQsqaUBKTNV-1">
          <mxGeometry x="30" y="390" width="270" height="30" as="geometry" />
        </mxCell>
        <mxCell id="JTZMOTASO3qHlPFauNc1-29" value="" style="endArrow=none;html=1;" edge="1" parent="WIyWlLk6GJQsqaUBKTNV-1">
          <mxGeometry width="50" height="50" relative="1" as="geometry">
            <mxPoint x="40" y="540" as="sourcePoint" />
            <mxPoint x="800" y="540" as="targetPoint" />
          </mxGeometry>
        </mxCell>
        <mxCell id="JTZMOTASO3qHlPFauNc1-30" value="" style="strokeWidth=2;html=1;shape=mxgraph.flowchart.annotation_2;align=left;labelPosition=right;pointerEvents=1;" vertex="1" parent="WIyWlLk6GJQsqaUBKTNV-1">
          <mxGeometry x="288.5" y="600" width="50" height="270" as="geometry" />
        </mxCell>
        <mxCell id="JTZMOTASO3qHlPFauNc1-38" style="edgeStyle=orthogonalEdgeStyle;rounded=0;orthogonalLoop=1;jettySize=auto;html=1;exitX=1;exitY=0.5;exitDx=0;exitDy=0;" edge="1" parent="WIyWlLk6GJQsqaUBKTNV-1" source="JTZMOTASO3qHlPFauNc1-32">
          <mxGeometry relative="1" as="geometry">
            <mxPoint x="518.5" y="640" as="targetPoint" />
          </mxGeometry>
        </mxCell>
        <mxCell id="JTZMOTASO3qHlPFauNc1-32" value="RANGO DE&lt;br&gt;EDAD 15 - 35 AÑOS" style="rounded=0;whiteSpace=wrap;html=1;" vertex="1" parent="WIyWlLk6GJQsqaUBKTNV-1">
          <mxGeometry x="338.5" y="610" width="120" height="60" as="geometry" />
        </mxCell>
        <mxCell id="JTZMOTASO3qHlPFauNc1-39" style="edgeStyle=orthogonalEdgeStyle;rounded=0;orthogonalLoop=1;jettySize=auto;html=1;exitX=1;exitY=0.5;exitDx=0;exitDy=0;" edge="1" parent="WIyWlLk6GJQsqaUBKTNV-1" source="JTZMOTASO3qHlPFauNc1-33">
          <mxGeometry relative="1" as="geometry">
            <mxPoint x="518.5" y="735" as="targetPoint" />
          </mxGeometry>
        </mxCell>
        <mxCell id="JTZMOTASO3qHlPFauNc1-33" value="RANGO DE&lt;br&gt;EDAD 36 - 55 AÑOS" style="rounded=0;whiteSpace=wrap;html=1;" vertex="1" parent="WIyWlLk6GJQsqaUBKTNV-1">
          <mxGeometry x="338.5" y="705" width="120" height="60" as="geometry" />
        </mxCell>
        <mxCell id="JTZMOTASO3qHlPFauNc1-40" style="edgeStyle=orthogonalEdgeStyle;rounded=0;orthogonalLoop=1;jettySize=auto;html=1;exitX=1;exitY=0.5;exitDx=0;exitDy=0;" edge="1" parent="WIyWlLk6GJQsqaUBKTNV-1" source="JTZMOTASO3qHlPFauNc1-34">
          <mxGeometry relative="1" as="geometry">
            <mxPoint x="518.5" y="830" as="targetPoint" />
          </mxGeometry>
        </mxCell>
        <mxCell id="JTZMOTASO3qHlPFauNc1-34" value="RANGO DE&lt;br&gt;EDAD 56 - 75 AÑOS" style="rounded=0;whiteSpace=wrap;html=1;" vertex="1" parent="WIyWlLk6GJQsqaUBKTNV-1">
          <mxGeometry x="338.5" y="800" width="120" height="60" as="geometry" />
        </mxCell>
        <mxCell id="JTZMOTASO3qHlPFauNc1-35" value="Principal&lt;br&gt;Component&lt;br&gt;Analysis" style="text;html=1;resizable=0;autosize=1;align=center;verticalAlign=middle;points=[];fillColor=none;strokeColor=none;rounded=0;" vertex="1" parent="WIyWlLk6GJQsqaUBKTNV-1">
          <mxGeometry x="198.5" y="630" width="80" height="50" as="geometry" />
        </mxCell>
        <mxCell id="JTZMOTASO3qHlPFauNc1-36" value="Clustering" style="text;html=1;resizable=0;autosize=1;align=center;verticalAlign=middle;points=[];fillColor=none;strokeColor=none;rounded=0;" vertex="1" parent="WIyWlLk6GJQsqaUBKTNV-1">
          <mxGeometry x="203.5" y="725" width="70" height="20" as="geometry" />
        </mxCell>
        <mxCell id="JTZMOTASO3qHlPFauNc1-37" value="Correlaciones" style="text;html=1;resizable=0;autosize=1;align=center;verticalAlign=middle;points=[];fillColor=none;strokeColor=none;rounded=0;" vertex="1" parent="WIyWlLk6GJQsqaUBKTNV-1">
          <mxGeometry x="193.5" y="800" width="90" height="20" as="geometry" />
        </mxCell>
        <mxCell id="JTZMOTASO3qHlPFauNc1-41" value="Correlaciones&lt;br&gt;Reglas de inferencia" style="text;html=1;resizable=0;autosize=1;align=center;verticalAlign=middle;points=[];fillColor=none;strokeColor=none;rounded=0;" vertex="1" parent="WIyWlLk6GJQsqaUBKTNV-1">
          <mxGeometry x="538.5" y="625" width="120" height="30" as="geometry" />
        </mxCell>
        <mxCell id="JTZMOTASO3qHlPFauNc1-42" value="Correlaciones&lt;br&gt;Reglas de inferencia" style="text;html=1;resizable=0;autosize=1;align=center;verticalAlign=middle;points=[];fillColor=none;strokeColor=none;rounded=0;" vertex="1" parent="WIyWlLk6GJQsqaUBKTNV-1">
          <mxGeometry x="538.5" y="720" width="120" height="30" as="geometry" />
        </mxCell>
        <mxCell id="JTZMOTASO3qHlPFauNc1-43" value="Correlaciones&lt;br&gt;Reglas de inferencia" style="text;html=1;resizable=0;autosize=1;align=center;verticalAlign=middle;points=[];fillColor=none;strokeColor=none;rounded=0;" vertex="1" parent="WIyWlLk6GJQsqaUBKTNV-1">
          <mxGeometry x="538.5" y="815" width="120" height="30" as="geometry" />
        </mxCell>
        <mxCell id="JTZMOTASO3qHlPFauNc1-44" value="*En caso de contar con&amp;nbsp;&lt;br&gt;datos suficientes tratar&lt;br&gt;clustering en cada rango de&lt;br&gt;edad" style="text;html=1;resizable=0;autosize=1;align=left;verticalAlign=middle;points=[];fillColor=none;strokeColor=none;rounded=0;" vertex="1" parent="WIyWlLk6GJQsqaUBKTNV-1">
          <mxGeometry x="620" y="890" width="160" height="60" as="geometry" />
        </mxCell>
      </root>
    </mxGraphModel>
  </diagram>
</mxfile>
